{"title":"CSI New York 6x10 [HDTV + AC3 + Spanish] avi","uid":5572890,"size":430139392,"categoryP":"video","categoryS":"hd___tv_shows","magnet":"?xt=urn:btih:2fc912c1f393d4081ef332df57dba3f895e44a93&amp;dn=CSI+New+York+6x10+%5BHDTV+%2B+AC3+%2B+Spanish%5D+avi&amp;tr=udp%3A%2F%2Ftracker.openbittorrent.com%3A80&amp;tr=udp%3A%2F%2Fopen.demonii.com%3A1337&amp;tr=udp%3A%2F%2Ftracker.coppersurfer.tk%3A6969&amp;tr=udp%3A%2F%2Fexodus.desync.com%3A6969","seeders":0,"leechers":1,"uploader":"fleqii","files":1,"time":1274300811,"description":"I:TorrentsCSI New York 6x10 [HDTV + AC3 + Spanish].avi\n   General\n      Complete name : I:TorrentsCSI New York 6x10 [HDTV + AC3 + Spanish].avi\n      Format : AVI\n      Format/Info : Audio Video Interleave\n      File size : 410 MiB\n      Duration : 41mn 24s\n      Overall bit rate : 1 385 Kbps\n      Writing application : VirtualDubMod 1.5.10.2 (build 2540/release)\n      Writing library : VirtualDubMod build 2540/release\n   Video #0\n      ID : 0\n      Format : MPEG-4 Visual\n      Format profile : AdvancedSimple@L5\n      Format settings, BVOP : Yes\n      Format settings, QPel : No\n      Format settings, GMC : No warppoints\n      Format settings, Matrix : Default (H.263)\n      Codec ID : XVID\n      Codec ID/Hint : XviD\n      Duration : 41mn 24s\n      Bit rate : 1 016 Kbps\n      Width : 624 pixels\n      Height : 352 pixels\n      Display aspect ratio : 16:9\n      Frame rate : 25.000 fps\n      Original frame rate : 23.976 fps\n      Resolution : 24 bits\n      Colorimetry : 4:2:0\n      Scan type : Progressive\n      Bits/(Pixel*Frame) : 0.185\n      Stream size : 301 MiB (73%)\n      Writing library : XviD 1.2.1 (UTC 2008-12-04)\n   Audio #1\n      ID : 1\n      Format : AC-3\n      Format/Info : Audio Coding 3\n      Codec ID : 2000\n      Duration : 41mn 24s\n      Bit rate mode : Constant\n      Bit rate : 448 Kbps\n      Channel(s) : 2 channels\n      Channel positions : L R\n      Sampling rate : 48.0 KHz\n      Stream size : 106 MiB (26%)\n      Alignment : Split accross interleaves\n      Interleave, duration : 40 ms (1.00 video frame)\n      Interleave, preload duration : 500 ms","torrent":{"xt":"urn:btih:2fc912c1f393d4081ef332df57dba3f895e44a93","amp;dn":"CSI+New+York+6x10+%5BHDTV+%2B+AC3+%2B+Spanish%5D+avi","amp;tr":["udp%3A%2F%2Ftracker.openbittorrent.com%3A80","udp%3A%2F%2Fopen.demonii.com%3A1337","udp%3A%2F%2Ftracker.coppersurfer.tk%3A6969","udp%3A%2F%2Fexodus.desync.com%3A6969"],"infoHash":"2fc912c1f393d4081ef332df57dba3f895e44a93","infoHashBuffer":{"type":"Buffer","data":[47,201,18,193,243,147,212,8,30,243,50,223,87,219,163,248,149,228,74,147]},"announce":[],"urlList":[]}}